<?xml version="1.0" encoding="UTF-8"?>
<!DOCTYPE svg PUBLIC "-//W3C//DTD SVG 1.1//EN" "http://www.w3.org/Graphics/SVG/1.1/DTD/svg11.dtd">
<svg version="1.1" xmlns="http://www.w3.org/2000/svg" xmlns:xlink="http://www.w3.org/1999/xlink" x="0" y="0" width="40" height="40" viewBox="0, 0, 40, 40">
  <g id="shape"/>
  <g id="Layer_1">
    <path d="M0.385,7.243 C1.267,6.761 18.707,3.16 18.707,3.16 L18.707,40 C18.707,40 -3.141,28.286 0.385,7.243 z" fill="#0D3063"/>
    <path d="M39.615,7.243 C38.733,6.761 21.293,3.16 21.293,3.16 L21.293,40 C21.293,40 43.141,28.286 39.615,7.243 z" fill="#8F0423"/>
    <path d="M18.707,3.16 L21.293,3.16 L21.293,40 L18.707,40 L18.707,3.16 z" fill="#FFFFFF"/>
    <g>
      <path d="M14.971,0.5 L15.034,0.5 L15.034,0.5 L14.971,0.5 z" fill="#FFFFFF"/>
      <path d="M14.971,0.5 L15.034,0.5 L15.034,0.5 L14.971,0.5 z" fill-opacity="0" stroke="#000000" stroke-width="1"/>
    </g>
    <g>
      <path d="M14.971,0.5 L15.034,0.5 L15.034,0.5 L14.971,0.5 z" fill="#FFFFFF"/>
      <path d="M14.971,0.5 L15.034,0.5 L15.034,0.5 L14.971,0.5 z" fill-opacity="0" stroke="#000000" stroke-width="1"/>
    </g>
    <g>
      <path d="M18.742,4.304 L18.742,7.479 Q18.394,7.438 17.575,7.418 Q16.755,7.397 16.444,7.76 Q16.132,8.123 16.132,8.56 L16.132,9.819 L18.844,9.819 L18.844,12.57 L16.132,12.57 L16.132,24.6 L12.013,24.6 L12.013,12.57 L10.036,12.557 L9.708,9.819 L11.97,9.819 L11.97,8.862 Q11.97,6.467 12.825,5.563 Q13.725,4.222 17.162,4.222 Q17.553,4.222 17.872,4.243 Q18.191,4.263 18.742,4.304 z" fill="#FFFFFF"/>
      <path d="M36.028,24.6 L30.895,24.6 L27,17.799 L25.239,19.594 L25.239,24.6 L21.061,24.6 L21.061,3.16 L25.221,5.419 L25.239,14.748 L30.536,8.765 L35.804,8.765 L30.119,14.851 z" fill="#FFFFFF"/>
    </g>
  </g>
</svg>
